HIERARCHY
ROOT Hips
{
	OFFSET 0.00000 0.00000 0.00000
	CHANNELS 6 Xposition Yposition Zposition Yrotation Zrotation Xrotation 
	JOINT Lumbar
	{
		OFFSET 0 0 0
		CHANNELS 3 Zrotation Xrotation Yrotation
		JOINT Neck
		{
			OFFSET 0.00 0.2701 0.00
			CHANNELS 3 Zrotation Xrotation Yrotation
			End Site
			{
				OFFSET 0.00 0.1379 0.00
			}
		}
		JOINT RightShoulder
		{
			OFFSET 0.0119 0.2289 0.1181
			CHANNELS 3 Zrotation Xrotation Yrotation
			JOINT RightElbow
			{
				OFFSET 0.00 -0.1475 0.00
				CHANNELS 2 Zrotation Yrotation
				JOINT RightWrist
				{
					OFFSET 0.00 -0.1605 0.00
					CHANNELS 2 Zrotation Xrotation
					End Site
					{
						OFFSET 0.0040 -0.1068 0.0006
					}
				}
			}
		}
		JOINT LeftShoulder
		{
			OFFSET 0.0119 0.2289 -0.1181
			CHANNELS 3 Zrotation Xrotation Yrotation
			JOINT LeftElbow
			{
				OFFSET 0.00 -0.1475 0.00
				CHANNELS 2 Zrotation Yrotation
				JOINT LeftWrist
				{
					OFFSET 0.00 -0.1605 0.00
					CHANNELS 2 Zrotation Xrotation
					End Site
					{
						OFFSET 0.0040 -0.1068 -0.0006
					}
				}
			}
		}
	}
	JOINT RightHip
	{
		OFFSET 0.0316 -0.0424 0.0458
		CHANNELS 3 Zrotation Xrotation Yrotation
		JOINT RightKnee
		{
			OFFSET 0.00 -0.2438 0.00
			CHANNELS 1 Zrotation
			JOINT RightAnkle
			{
				OFFSET 0.00 -0.2449 0.00
				CHANNELS 3 Zrotation Xrotation Yrotation
				End Site
				{
					OFFSET 0.1237 -0.0542 0.0051
				}
			}
		}
	}
	JOINT LeftHip
	{
		OFFSET 0.0316 -0.0424 -0.0458
		CHANNELS 3 Zrotation Xrotation Yrotation
		JOINT LeftKnee
		{
			OFFSET 0.00 -0.2438 0.00
			CHANNELS 1 Zrotation
			JOINT LeftAnkle
			{
				OFFSET 0.00 -0.2449 0.00
				CHANNELS 3 Zrotation Xrotation Yrotation
				End Site
				{
					OFFSET 0.1237 -0.0542 -0.0051
				}
			}
		}
	}
}
MOTION
Frames: 22
Frame Time: 0.02
0.27194 0.00626 0.02327 178.63089 0 -2.58611 8.6667 3.78843 -2.87667 -41.25981 4.85985 4.39823 29.93972 -40.05959 35.99938 45.91677 71.99497 -27.25056 -2.50255 41.18237 28.61182 -22.44878 26.98191 -106.3115 -32.50435 6.64891 123.44194 3.3104 -7.87073 -70.78607 -10.35752 -2.15104 0.52853 130.40371 -13.91155 -12.12 -121.60466 19.32761 3.22069 -0.08126
0.27171 0.00634 0.02312 178.54027 0 -2.44483 8.34748 3.76115 -2.7479 -41.30483 4.60511 4.22007 30.24305 -39.52798 36.66494 45.80829 72.53474 -27.42567 -2.5769 41.19094 28.83209 -24.07014 27.66959 -106.06851 -33.37242 6.60664 124.3979 3.18784 -8.43012 -72.85147 -10.56429 -2.10803 0.87813 130.40371 -13.91161 -12.20411 -121.72958 19.23653 3.10301 -0.0783
0.27148 0.00642 0.02302 178.44005 0 -2.30408 8.02792 3.75006 -2.63472 -41.32897 4.35743 4.02738 30.63729 -38.9841 37.30543 45.47267 73.06043 -27.63833 -2.6443 41.20588 29.08906 -25.67795 28.30886 -105.67303 -34.03619 6.58336 125.46264 2.98103 -9.07462 -75.18681 -10.83152 -2.06266 1.32201 130.40371 -13.91168 -12.29653 -121.85667 19.17473 2.97761 -0.08865
0.27126 0.00649 0.02292 178.35654 0 -2.16093 7.70881 3.72852 -2.52329 -41.36085 4.11379 3.83796 30.97991 -38.46269 37.95126 45.25912 73.57265 -27.83687 -2.71222 41.21403 29.32877 -27.28146 28.96957 -105.3373 -34.75661 6.54908 126.45562 2.71552 -9.75065 -77.41241 -11.08132 -2.01444 1.77697 130.4037 -13.91174 -12.36633 -121.9752 19.10368 2.85838 -0.09154
0.27102 0.00659 0.02276 178.22142 0 -2.02558 7.38895 3.71949 -2.37529 -41.40254 3.83832 3.65929 31.37163 -37.86564 38.62319 44.96247 74.17008 -28.0196 -2.79123 41.24153 29.57592 -28.94121 29.63566 -105.02302 -35.62691 6.52351 127.54549 2.85009 -10.14075 -79.59033 -11.29119 -1.98128 2.01461 130.4037 -13.91188 -12.51442 -122.1259 19.01554 2.72808 -0.10011
0.27081 0.00663 0.02272 178.18944 0 -1.87527 7.07018 3.68893 -2.30584 -41.41812 3.63087 3.45698 31.68248 -37.42528 39.23531 44.78697 74.58893 -28.24437 -2.8459 41.23079 29.81469 -30.47276 30.2788 -104.63802 -36.13892 6.48544 128.45783 2.14435 -11.134 -81.9265 -11.59674 -1.91747 2.71488 130.4037 -13.91178 -12.5047 -122.21077 18.96945 2.61873 -0.10007
0.27061 0.00647 0.02297 178.46834 0 -1.67567 6.75711 3.58913 -2.46288 -41.36401 3.61504 3.18133 31.72562 -37.41544 39.67901 44.99427 74.48389 -28.58873 -2.8302 41.09405 30.01738 -31.69384 30.85939 -104.05884 -35.69511 6.40028 128.85968 -0.97977 -13.87909 -84.66526 -12.16393 -1.76101 4.77466 130.4037 -13.91098 -12.02104 -122.10414 19.03828 2.57216 -0.07416
0.27043 0.00625 0.02333 178.84755 0 -1.4626 6.44481 3.46826 -2.6962 -41.28453 3.66671 2.88473 31.68865 -37.56494 40.0646 45.3335 74.20538 -28.97175 -2.79107 40.92259 30.21032 -32.77826 31.42024 -103.42265 -34.90099 6.3034 129.07764 -4.92589 -17.20863 -87.5479 -12.82359 -1.57557 7.27737 130.40371 -13.90943 -11.3837 -121.93267 19.14728 2.54663 -0.03929
0.27026 0.00606 0.02362 179.16501 0 -1.26088 6.13015 3.36074 -2.88568 -41.21796 3.68404 2.60583 31.70004 -37.64576 40.48321 45.61704 74.02802 -29.3302 -2.76579 40.77722 30.40955 -33.8969 31.99654 -102.8386 -34.27832 6.21719 129.37531 -8.41661 -20.19963 -90.34273 -13.43176 -1.40906 9.50785 130.40371 -13.90892 -10.84146 -121.79684 19.23416 2.50918 -0.00736
0.27004 0.00587 0.02397 179.54877 0 -1.03694 5.82318 3.2375 -3.11369 -41.1446 3.71678 2.29243 31.65864 -37.71145 40.87447 45.87299 73.7559 -29.72203 -2.72682 40.58389 30.60238 -35.1305 32.54308 -102.13845 -33.59701 6.10922 129.69306 -12.25091 -23.49953 -93.23988 -14.07899 -1.21784 12.03977 130.40372 -13.90759 -10.19722 -121.63537 19.33878 2.48044 0.02075
0.26992 0.00567 0.02423 179.82037 0 -0.85629 5.50137 3.14222 -3.28026 -41.07995 3.73369 2.04537 31.71402 -37.84526 41.30745 46.22269 73.64032 -30.0498 -2.71081 40.48803 30.80566 -36.09544 33.14852 -101.6683 -32.95701 6.04338 129.92396 -15.56972 -26.29621 -95.95686 -14.66982 -1.07159 14.04949 130.40372 -13.9051 -9.72343 -121.51147 19.41511 2.43988 0.05735
0.27008 0.00548 0.02419 179.74047 0 -0.79657 5.12984 3.12556 -3.25049 -41.04171 3.68779 1.9936 31.99613 -38.13952 41.88508 46.7826 73.99732 -30.21776 -2.76477 40.61937 31.03926 -36.32539 33.91308 -101.85167 -32.52045 6.09797 129.95879 -17.20897 -27.53593 -98.11795 -15.04578 -1.05311 14.49316 130.40372 -13.91009 -9.79484 -121.51243 19.40068 2.35002 0.12686
0.27035 0.0053 0.02405 179.5472 0 -0.78122 4.74481 3.13828 -3.15746 -41.01327 3.6241 2.00836 32.38978 -38.49417 42.50401 47.43593 74.51806 -30.31399 -2.84254 40.85964 31.28302 -36.295 34.73935 -102.26841 -32.13801 6.19504 129.91222 -18.30884 -28.25161 -100.0944 -15.36566 -1.08125 14.39835 130.40372 -13.90329 -10.02981 -121.55378 19.35203 2.24905 0.20009
0.27055 0.00512 0.02397 179.41757 0 -0.74678 4.37175 3.14007 -3.09883 -40.98377 3.5702 1.98782 32.77055 -38.81456 43.09407 48.05913 74.96555 -30.42652 -2.90891 41.0827 31.52337 -36.4009 35.54317 -102.57624 -31.72928 6.27172 129.90323 -19.69393 -29.22477 -102.17087 -15.73823 -1.09072 14.56002 130.40372 -13.90605 -10.17371 -121.5715 19.3268 2.16159 0.26712
0.27081 0.0049 0.02382 179.24153 0 -0.7073 3.97464 3.13139 -3.01986 -40.94167 3.51137 1.98681 32.98643 -39.17176 43.72454 48.63712 75.40297 -30.61252 -2.97689 41.16704 31.76103 -36.42492 36.32287 -102.89419 -31.31488 6.3525 129.88557 -20.94701 -30.14324 -104.1899 -16.01006 -1.08974 14.68802 130.40371 -13.92672 -10.40901 -121.60375 19.2893 2.04186 0.36339
0.27099 0.00477 0.02379 179.13239 0 -0.68907 3.62369 3.15119 -2.96616 -40.92515 3.45783 1.96262 33.57642 -39.46145 44.28165 49.32677 75.90139 -30.62384 -3.04748 41.56813 32.00341 -36.56097 37.16746 -103.24705 -30.93033 6.43507 129.86881 -22.32551 -31.03547 -106.27607 -16.46357 -1.12047 14.75191 130.40371 -13.86257 -10.46208 -121.62305 19.24421 1.98305 0.38711
0.2709 0.00489 0.02413 179.24809 0 -0.71846 3.40936 3.24728 -3.00604 -41.00484 3.42221 1.84605 35.14573 -39.57571 44.62523 50.32617 76.5373 -30.20491 -3.11913 42.80455 32.28497 -37.05725 38.17807 -103.64068 -30.61216 6.5113 129.87682 -24.26885 -32.0498 -108.64873 -17.54978 -1.24063 14.77283 130.40372 -13.96459 -10.26306 -121.53685 19.40383 2.12488 0.32105
0.27073 0.00509 0.02459 179.43198 0 -0.76777 3.24058 3.37003 -3.07133 -41.1043 3.39262 1.70631 37.09283 -39.61432 44.89476 51.4286 77.22719 -29.60589 -3.19246 44.35813 32.5653 -37.67811 39.25125 -104.06087 -30.32473 6.58793 129.88902 -26.33598 -33.04082 -111.08369 -18.79912 -1.38885 14.74514 130.40372 -13.91784 -9.82901 -121.44687 19.52176 2.32333 0.16467
0.27061 0.00525 0.02497 179.57637 0 -0.80823 3.04747 3.47774 -3.11946 -41.17716 3.36031 1.5851 38.88493 -39.66988 45.19807 52.4685 77.8884 -29.06663 -3.26574 45.77553 32.82788 -38.25129 40.29508 -104.46891 -30.02651 6.66519 129.89864 -28.28644 -33.99553 -113.45325 -19.89542 -1.51555 14.73593 130.40373 -13.66531 -9.30278 -121.39925 19.50902 2.47554 -0.02819
0.27045 0.00544 0.02543 179.75384 0 -0.84955 2.87034 3.59958 -3.19017 -41.32688 3.32637 1.43207 40.61119 -39.80128 45.49911 53.58193 78.57648 -28.61864 -3.33805 47.16483 33.16946 -38.77845 41.34635 -104.88762 -29.71544 6.7411 129.90807 -30.47668 -35.12879 -115.97484 -21.31992 -1.68052 14.72346 130.40371 -14.52387 -9.59109 -121.1849 20.10401 2.71159 0.09125
0.27034 0.00558 0.02577 179.87875 0 -0.89299 2.66951 3.69699 -3.21936 -41.31838 3.29867 1.33939 42.56187 -39.75589 45.7907 54.56056 79.21457 -27.93806 -3.41094 48.68444 33.34438 -39.43337 42.39437 -105.28459 -29.43916 6.8186 129.92006 -32.20003 -35.89332 -118.19472 -22.10411 -1.77231 14.7132 130.40376 -13.08658 -8.164 -121.31206 19.4523 2.78958 -0.44227
0.27037 0.00557 0.02581 179.8536 0 -0.93938 2.40431 3.72843 -3.13981 -40.89115 3.27624 1.41509 45.04574 -39.24086 46.03992 55.18527 79.74236 -26.66385 -3.49787 50.50198 33.07359 -40.42063 43.4342 -105.63522 -29.23841 6.90661 129.93777 -32.63594 -35.62922 -119.58451 -21.0467 -1.65082 14.72168 130.40401 -4.88229 -1.71942 -122.41998 15.12217 2.39138 -2.92138
